<?xml version="1.0" encoding="UTF-8"?>
<!DOCTYPE svg PUBLIC "-//W3C//DTD SVG 1.1//EN" "http://www.w3.org/Graphics/SVG/1.1/DTD/svg11.dtd">
<svg xmlns="http://www.w3.org/2000/svg">
<symbol id="accaunt-people" viewBox="0 0 512 512">
	<path d="M8 256C8 119.033 119.033 8 256 8s248 111.033 248 248-111.033 248-248 248S8 392.967 8 256zm72.455 125.868C119.657 436.446 183.673 472 256 472s136.343-35.554 175.545-90.132c-3.141-26.99-22.667-49.648-49.538-56.366l-32.374-8.093C323.565 339.79 290.722 352 256 352s-67.565-12.21-93.634-34.591l-32.374 8.093c-26.87 6.718-46.396 29.376-49.537 56.366zM144 208c0 61.856 50.144 112 112 112s112-50.144 112-112S317.856 96 256 96s-112 50.144-112 112z"/>
</symbol>
<symbol id="add-people-interface-symbol-of-black-person-close-up-with-plus-sign-in-small-circle" viewBox="0 0 27.021 27.022">
	<path d="M17.855 21.223c0-1.902 1.049-3.55 2.588-4.44-.963-.308-2-.552-3.09-.722a7.617 7.617 0 0 0-3.688-14.28 7.617 7.617 0 0 0-3.688 14.28C4.223 16.958 0 19.897 0 23.389h18.35a5.095 5.095 0 0 1-.495-2.166z"/>
	<path d="M23.004 17.206a4.017 4.017 0 1 0-.001 8.035 4.017 4.017 0 0 0 .001-8.035zm2.623 4.73h-1.909v1.91h-1.427v-1.91h-1.91v-1.429h1.91v-1.911h1.427v1.911h1.909v1.429z"/>
</symbol>
<symbol id="people-plus" viewBox="0 0 640 512">
	<path fill="currentColor" d="M224 32c77.32 0 140 62.68 140 140s-62.68 140-140 140S84 249.32 84 172 146.68 32 224 32zm160.373 292.093l-62.399-15.6c-65.557 47.154-145.021 36.631-195.948 0l-62.399 15.6C26.233 333.442 0 367.04 0 405.585V438c0 23.196 18.804 42 42 42h364c23.196 0 42-18.804 42-42v-32.415c0-38.545-26.233-72.143-63.627-81.492zM628 224.889h-68.889V156c0-6.627-5.373-12-12-12h-38.222c-6.627 0-12 5.373-12 12l-.002 68.887-68.887.002c-6.627 0-12 5.373-12 12v38.222c0 6.627 5.373 12 12 12l68.887.002.002 68.887c0 6.627 5.373 12 12 12h38.222c6.627 0 12-5.373 12-12l.002-68.887 68.887-.002c6.627 0 12-5.373 12-12v-38.222c0-6.627-5.373-12-12-12z"/>
</symbol>
<symbol id="people" viewBox="0 0 512 512">
	<path fill="currentColor" d="M256 0c88.366 0 160 71.634 160 160s-71.634 160-160 160S96 248.366 96 160 167.634 0 256 0zm183.283 333.821l-71.313-17.828c-74.923 53.89-165.738 41.864-223.94 0l-71.313 17.828C29.981 344.505 0 382.903 0 426.955V464c0 26.51 21.49 48 48 48h416c26.51 0 48-21.49 48-48v-37.045c0-44.052-29.981-82.45-72.717-93.134z"/>
</symbol>
<symbol id="rub" viewBox="0 0 384 512">
	<path d="M239.36 320C324.48 320 384 260.542 384 175.071S324.48 32 239.36 32H76c-6.627 0-12 5.373-12 12v206.632H12c-6.627 0-12 5.373-12 12V308c0 6.627 5.373 12 12 12h52v32H12c-6.627 0-12 5.373-12 12v40c0 6.627 5.373 12 12 12h52v52c0 6.627 5.373 12 12 12h58.56c6.627 0 12-5.373 12-12v-52H308c6.627 0 12-5.373 12-12v-40c0-6.627-5.373-12-12-12H146.56v-32h92.8zm-92.8-219.252h78.72c46.72 0 74.88 29.11 74.88 74.323 0 45.832-28.16 75.561-76.16 75.561h-77.44V100.748z"/>
</symbol>
</svg>